<?xml version="1.0" encoding="UTF-8" standalone="no"?>
<!-- Created with Inkscape (http://www.inkscape.org/) -->

<svg
   xmlns:dc="http://purl.org/dc/elements/1.1/"
   xmlns:cc="http://creativecommons.org/ns#"
   xmlns:rdf="http://www.w3.org/1999/02/22-rdf-syntax-ns#"
   xmlns:svg="http://www.w3.org/2000/svg"
   xmlns="http://www.w3.org/2000/svg"
   version="1.1"
   width="693.91248"
   height="111.5125"
   id="svg3023"
   xml:space="preserve"><metadata
     id="metadata3029"><rdf:RDF><cc:Work
         rdf:about=""><dc:format>image/svg+xml</dc:format><dc:type
           rdf:resource="http://purl.org/dc/dcmitype/StillImage" /><dc:title></dc:title></cc:Work></rdf:RDF></metadata><defs
     id="defs3027" /><g
     transform="matrix(1.25,0,0,-1.25,0,111.5125)"
     id="g3031"><g
       transform="scale(0.1,0.1)"
       id="g3033"><path
         d="m 285.598,497.973 c 0,-144.418 38.433,-183.989 102.488,-183.989 64.043,0 102.48,39.571 102.48,183.989 0,144.425 -38.437,184.023 -102.48,184.023 -64.055,0 -102.488,-39.598 -102.488,-184.023"
         id="path3035"
         style="fill:#e31837;fill-opacity:1;fill-rule:nonzero;stroke:none" /><path
         d="m 1494.75,171.914 -150.71,0 0,232.813 c 0,18.945 -0.98,37.828 -2.91,56.636 -1.93,18.797 -5.25,32.676 -9.96,41.59 -5.54,10.305 -13.64,17.813 -24.29,22.57 -10.64,4.747 -25.51,7.11 -44.6,7.11 -13.57,0 -27.33,-2.238 -41.29,-6.692 -13.98,-4.441 -29.13,-11.55 -45.45,-21.296 l 0,-332.731 -150.7,0 0,649.066 150.7,0 0,-232.011 c 26.6,20.871 52.17,36.875 76.69,48 24.51,11.121 51.74,16.699 81.67,16.699 50.43,0 89.83,-14.758 118.24,-44.258 28.4,-29.492 42.61,-73.605 42.61,-132.324 l 0,-305.172"
         id="path3037"
         style="fill:#2b59ae;fill-opacity:1;fill-rule:nonzero;stroke:none" /><path
         d="m 1927.07,292.129 c 9.71,11.953 17.01,26.367 21.88,43.203 4.85,16.836 7.3,40.117 7.3,69.883 0,27.539 -2.5,50.629 -7.51,69.281 -5.01,18.633 -11.94,33.516 -20.84,44.641 -8.91,11.406 -19.6,19.472 -32.09,24.199 -12.5,4.726 -25.99,7.098 -40.43,7.098 -14.45,0 -27.3,-1.942 -38.56,-5.84 -11.25,-3.895 -22.01,-11.68 -32.28,-23.36 -9.18,-10.859 -16.48,-25.75 -21.89,-44.656 -5.42,-18.918 -8.13,-42.711 -8.13,-71.363 0,-25.606 2.36,-47.793 7.09,-66.543 4.71,-18.789 11.66,-33.887 20.84,-45.274 8.88,-10.878 19.5,-18.789 31.87,-23.808 12.36,-5 26.48,-7.5 42.31,-7.5 13.6,0 26.6,2.285 38.98,6.875 12.36,4.609 22.86,12.324 31.46,23.164 z m 184.62,113.926 c 0,-76.973 -22.43,-137.598 -67.3,-181.914 -44.87,-44.317 -107.87,-66.465 -189.01,-66.465 -81.13,0 -144.13,22.148 -188.99,66.465 -44.88,44.316 -67.31,104.941 -67.31,181.914 0,77.504 22.56,138.355 67.71,182.535 45.14,44.16 108.01,66.269 188.59,66.269 81.7,0 144.83,-22.226 189.41,-66.691 44.6,-44.461 66.9,-105.164 66.9,-182.113"
         id="path3039"
         style="fill:#2b59ae;fill-opacity:1;fill-rule:nonzero;stroke:none" /><path
         d="m 2220.03,171.914 150.699,0 0,649.066 -150.699,0 0,-649.066 z"
         id="path3041"
         style="fill:#2b59ae;fill-opacity:1;fill-rule:nonzero;stroke:none" /><path
         d="m 2662.75,171.914 -150.71,0 0,468.707 150.71,0 0,-468.707 z m 4.75,535.16 -160.21,0 0,113.906 160.21,0 0,-113.906"
         id="path3043"
         style="fill:#2b59ae;fill-opacity:1;fill-rule:nonzero;stroke:none" /><path
         d="m 3211.06,319.668 c 0,-48.574 -21.72,-87.715 -65.16,-117.422 -43.46,-29.726 -102.92,-44.57 -178.37,-44.57 -41.79,0 -79.65,3.906 -113.62,11.699 -34,7.793 -61.27,16.445 -81.89,25.918 l 0,123.75 13.81,0 c 7.53,-5.352 16.27,-11.191 26.16,-17.539 9.92,-6.348 23.94,-13.184 42.1,-20.508 15.62,-6.484 33.36,-12.051 53.17,-16.68 19.83,-4.648 41.03,-6.972 63.66,-6.972 29.59,0 51.48,3.34 65.72,10.039 14.24,6.679 21.36,16.582 21.36,29.668 0,11.445 -4.19,19.746 -12.56,24.902 -8.37,5.156 -24.27,10.137 -47.69,14.883 -11.14,2.5 -26.28,5.215 -45.38,8.144 -19.1,2.93 -36.44,6.485 -52.06,10.665 -42.67,11.171 -74.33,28.535 -94.97,52.128 -20.62,23.575 -30.95,52.946 -30.95,88.102 0,45.195 21.35,82.801 64.07,112.801 42.71,29.992 101.07,44.992 175.11,44.992 35.05,0 68.64,-3.555 100.81,-10.637 32.13,-7.109 57.24,-14.687 75.34,-22.734 l 0,-118.516 -12.98,0 c -22.31,15.43 -47.75,28 -76.31,37.676 -28.6,9.68 -57.53,14.543 -86.8,14.543 -24.26,0 -44.7,-3.43 -61.28,-10.254 -16.6,-6.848 -24.87,-16.523 -24.87,-29.035 0,-11.16 3.76,-19.676 11.29,-25.535 7.53,-5.86 25.23,-11.719 53.11,-17.578 15.34,-3.078 31.85,-6.086 49.56,-9.004 17.71,-2.942 35.49,-6.641 53.35,-11.094 39.59,-10.324 68.87,-26.598 87.84,-48.766 18.95,-22.187 28.43,-49.882 28.43,-83.066"
         id="path3045"
         style="fill:#2b59ae;fill-opacity:1;fill-rule:nonzero;stroke:none" /><path
         d="m 3609.93,175.742 c -16.11,-4.14 -33.24,-7.422 -51.3,-9.785 -18.07,-2.363 -40.17,-3.555 -66.32,-3.555 -58.4,0 -101.84,11.836 -130.34,35.508 -28.5,23.652 -42.76,64.141 -42.76,121.485 l 0,219.175 -61.7,0 0,102.051 61.7,0 0,134.082 150.72,0 0,-134.082 140,0 0,-102.051 -140,0 0,-166.304 c 0,-16.426 0.11,-30.782 0.41,-43.028 0.26,-12.265 2.49,-23.261 6.65,-33.008 3.86,-9.765 10.73,-17.5 20.56,-23.203 9.81,-5.703 24.17,-8.574 43.01,-8.574 7.75,0 17.91,1.68 30.52,5.039 12.6,3.34 21.39,6.406 26.41,9.219 l 12.44,0 0,-102.969"
         id="path3047"
         style="fill:#2b59ae;fill-opacity:1;fill-rule:nonzero;stroke:none" /><path
         d="m 3850.85,171.914 -150.72,0 0,468.707 150.72,0 0,-468.707 z m 4.74,535.16 -160.19,0 0,113.906 160.19,0 0,-113.906"
         id="path3049"
         style="fill:#2b59ae;fill-opacity:1;fill-rule:nonzero;stroke:none" /><path
         d="m 4236.15,158.848 c -40.91,0 -78.27,4.882 -112.07,14.629 -33.83,9.765 -63.25,24.785 -88.28,45.136 -24.77,20.332 -43.97,45.977 -57.62,76.914 -13.64,30.918 -20.44,67.129 -20.44,108.653 0,43.726 7.31,81.468 21.92,113.238 14.61,31.758 35,58.086 61.14,79.004 25.32,19.766 54.56,34.258 87.66,43.457 33.11,9.187 67.48,13.789 103.09,13.789 32.01,0 61.52,-3.477 88.5,-10.461 27,-6.961 52.18,-16.035 75.57,-27.195 l 0,-128.469 -21.28,0 c -5.86,5.078 -12.88,11.016 -21.09,17.805 -8.19,6.785 -18.28,13.418 -30.24,19.91 -11.39,6.211 -23.91,11.367 -37.55,15.469 -13.62,4.093 -29.46,6.152 -47.54,6.152 -40.05,0 -70.87,-12.813 -92.41,-38.418 -21.55,-25.606 -32.32,-60.371 -32.32,-104.281 0,-45.371 11.06,-79.785 33.16,-103.282 22.08,-23.515 53.46,-35.253 94.07,-35.253 18.92,0 35.93,2.187 51.09,6.582 15.18,4.375 27.76,9.55 37.78,15.488 9.45,5.664 17.8,11.582 25.03,17.812 7.23,6.231 13.9,12.325 20.02,18.262 l 21.28,0 0,-128.516 c -23.68,-11.171 -48.36,-20.019 -74.1,-26.582 -25.74,-6.562 -54.2,-9.843 -85.37,-9.843"
         id="path3051"
         style="fill:#e31837;fill-opacity:1;fill-rule:nonzero;stroke:none" /><path
         d="m 4788.41,292.129 c 9.72,11.953 17.03,26.367 21.87,43.203 4.87,16.836 7.31,40.117 7.31,69.883 0,27.539 -2.5,50.629 -7.51,69.281 -4.99,18.633 -11.93,33.516 -20.83,44.641 -8.9,11.406 -19.61,19.472 -32.09,24.199 -12.51,4.726 -25.98,7.098 -40.42,7.098 -14.46,0 -27.33,-1.942 -38.58,-5.84 -11.26,-3.895 -22.01,-11.68 -32.28,-23.36 -9.16,-10.859 -16.49,-25.75 -21.9,-44.656 -5.42,-18.918 -8.12,-42.711 -8.12,-71.363 0,-25.606 2.37,-47.793 7.08,-66.543 4.72,-18.789 11.67,-33.887 20.86,-45.274 8.89,-10.878 19.49,-18.789 31.86,-23.808 12.36,-5 26.48,-7.5 42.31,-7.5 13.61,0 26.61,2.285 38.98,6.875 12.38,4.609 22.86,12.324 31.46,23.164 z m 184.64,113.926 c 0,-76.973 -22.44,-137.598 -67.32,-181.914 -44.87,-44.317 -107.88,-66.465 -188.99,-66.465 -81.14,0 -144.15,22.148 -189.03,66.465 -44.85,44.316 -67.28,104.941 -67.28,181.914 0,77.504 22.57,138.355 67.7,182.535 45.15,44.16 108.02,66.269 188.61,66.269 81.69,0 144.81,-22.226 189.4,-66.691 44.59,-44.461 66.91,-105.164 66.91,-182.113"
         id="path3053"
         style="fill:#e31837;fill-opacity:1;fill-rule:nonzero;stroke:none" /><path
         d="m 5551.27,171.914 -150.7,0 0,232.813 c 0,18.945 -0.99,37.828 -2.9,56.636 -1.95,18.797 -5.26,32.676 -9.96,41.59 -5.55,10.305 -13.66,17.813 -24.3,22.57 -10.64,4.747 -25.51,7.11 -44.61,7.11 -13.57,0 -27.32,-2.238 -41.3,-6.692 -13.96,-4.441 -29.1,-11.55 -45.43,-21.296 l 0,-332.731 -150.7,0 0,468.707 150.7,0 0,-51.652 c 26.59,20.871 52.16,36.875 76.69,48 24.5,11.121 51.75,16.699 81.67,16.699 50.43,0 89.82,-14.758 118.22,-44.258 28.4,-29.492 42.62,-73.605 42.62,-132.324 l 0,-305.172"
         id="path3055"
         style="fill:#e31837;fill-opacity:1;fill-rule:nonzero;stroke:none" /><path
         d="m 669.578,679.859 c 31.367,-49.992 49.238,-111.379 49.238,-181.886 0,-196.821 -132.761,-326.059 -330.73,-326.059 -194.5,0 -330.7618,119.941 -330.7618,326.059 0,189.855 128.1058,326.105 330.7618,326.105 17.246,0 34.094,-1.086 50.488,-3.164 l 381.77,0 0,71.199 -820.344,0 0,-784.73 820.344,0 0,572.476 -150.766,0"
         id="path3057"
         style="fill:#e31837;fill-opacity:1;fill-rule:nonzero;stroke:none" /><path
         d="m 3488.34,67.207 33.63,38.652 22.64,0 0,-104.33556 -25.96,0 0,65.15626 -28.44,-32.7149 -3.62,0 -28.38,32.7149 0,-65.15626 -25.95,0 0,104.33556 22.55,0 33.53,-38.652"
         id="path3059"
         style="fill:#8b8d91;fill-opacity:1;fill-rule:nonzero;stroke:none" /><path
         d="m 3644.63,20.6445 0,-19.12106 -77.01,0 0,104.33556 75.98,0 0,-19.1207 -50.03,0 0,-21.875 47.64,0 0,-19.1211 -47.64,0 0,-25.0977 51.06,0"
         id="path3061"
         style="fill:#8b8d91;fill-opacity:1;fill-rule:nonzero;stroke:none" /><path
         d="m 3720.82,67.207 33.62,38.652 22.65,0 0,-104.33556 -25.96,0 0,65.15626 -28.44,-32.7149 -3.62,0 -28.39,32.7149 0,-65.15626 -25.95,0 0,104.33556 22.55,0 33.54,-38.652"
         id="path3063"
         style="fill:#8b8d91;fill-opacity:1;fill-rule:nonzero;stroke:none" /><path
         d="m 3826.04,45.2344 0,-24.5899 14.64,0 c 6.93,0 11.92,0.9571 14.95,2.8711 3.05,1.9141 4.57,5.2344 4.57,9.961 0,3.6132 -1.46,6.4843 -4.34,8.5937 -2.89,2.1094 -6.76,3.1641 -11.59,3.1641 l -18.23,0 z m 0,41.5039 0,-22.3828 13.65,0 c 4.19,0 7.47,1.0742 9.81,3.2226 2.35,2.1485 3.52,4.8438 3.52,8.086 0,3.1836 -1.17,5.8203 -3.52,7.9297 -2.34,2.0898 -5.62,3.1445 -9.81,3.1445 l -13.65,0 z m -25.95,19.1207 45.14,0 c 10.76,0 19.2,-2.597 25.37,-7.7926 6.16,-5.1758 9.23,-11.3086 9.23,-18.3984 0,-9.0625 -4.76,-16.0157 -14.27,-20.8594 7.17,-1.8945 12.65,-5.2148 16.45,-10 3.78,-4.7656 5.68,-10.332 5.68,-16.6992 0,-9.043 -3.13,-16.4063 -9.34,-22.0703 -6.22,-5.68363 -15.38,-8.51566 -27.49,-8.51566 l -50.77,0 0,104.33556"
         id="path3065"
         style="fill:#8b8d91;fill-opacity:1;fill-rule:nonzero;stroke:none" /><path
         d="m 3983.92,20.6445 0,-19.12106 -77.01,0 0,104.33556 75.98,0 0,-19.1207 -50.03,0 0,-21.875 47.65,0 0,-19.1211 -47.65,0 0,-25.0977 51.06,0"
         id="path3067"
         style="fill:#8b8d91;fill-opacity:1;fill-rule:nonzero;stroke:none" /><path
         d="m 4029.98,86.7383 0,-23.75 13.57,0 c 4.33,0 7.75,1.0351 10.29,3.1055 2.54,2.0703 3.8,5.0195 3.8,8.8476 0,7.8516 -4.89,11.7969 -14.68,11.7969 l -12.98,0 z m -25.96,19.1207 46.43,0 c 10.07,0 18.24,-2.929 24.54,-8.7887 6.32,-5.8594 9.45,-12.9297 9.45,-21.25 0,-11.5039 -5.99,-20.0195 -17.97,-25.5469 5.32,-2.3437 10.34,-8.7304 15.06,-19.1796 4.73,-10.4493 9.28,-20.3126 13.68,-29.57036 l -28.49,0 c -1.71,3.4375 -4.68,9.98046 -8.93,19.64846 -4.25,9.6484 -7.85,15.8593 -10.85,18.5937 -2.97,2.7344 -6.16,4.1016 -9.56,4.1016 l -7.4,0 0,-42.34376 -25.96,0 0,104.33556"
         id="path3069"
         style="fill:#8b8d91;fill-opacity:1;fill-rule:nonzero;stroke:none" /><path
         d="m 4205.3,21.6797 c 9.86,0 17.82,2.9297 23.84,8.8281 6.02,5.8789 9.03,13.6133 9.03,23.1836 0,9.6094 -3.01,17.3633 -9.03,23.2227 -6.02,5.8593 -13.98,8.789 -23.84,8.789 -9.91,0 -17.9,-2.9297 -23.95,-8.789 -6.06,-5.8594 -9.08,-13.6133 -9.08,-23.2227 0,-9.5703 3.02,-17.3047 9.08,-23.1836 6.05,-5.8984 14.04,-8.8281 23.95,-8.8281 z m 0,85.7033 c 17.77,0 32.16,-5.371 43.17,-16.133 11,-10.7812 16.52,-23.3008 16.52,-37.5977 0,-14.4921 -5.6,-27.0507 -16.74,-37.6953 C 4237.09,5.3125 4222.77,0 4205.3,0 c -17.69,0 -32.08,5.27344 -43.18,15.8789 -11.11,10.5859 -16.66,23.1836 -16.66,37.7734 0,14.336 5.52,26.875 16.55,37.6172 11.02,10.7425 25.45,16.1135 43.29,16.1135"
         id="path3071"
         style="fill:#8b8d91;fill-opacity:1;fill-rule:nonzero;stroke:none" /><path
         d="m 4355.82,105.859 0,-19.1207 -45.94,0 0,-23.2422 45.94,0 0,-19.1211 -45.94,0 0,-42.85156 -25.94,0 0,104.33556 71.88,0"
         id="path3073"
         style="fill:#8b8d91;fill-opacity:1;fill-rule:nonzero;stroke:none" /><path
         d="m 4489.38,99.3555 0,-20.3125 c -13.83,6.1523 -24.85,9.2187 -33.04,9.2187 -4.68,0 -8.4,-0.7812 -11.15,-2.3633 -2.77,-1.582 -4.15,-3.6718 -4.15,-6.289 0,-1.9922 0.99,-3.9063 2.97,-5.7032 1.98,-1.8164 6.84,-4.1406 14.56,-6.9921 7.71,-2.8516 13.9,-5.4883 18.54,-7.9493 4.63,-2.4414 8.63,-5.8984 11.99,-10.332 3.36,-4.4531 5.04,-10.0586 5.04,-16.8555 0,-9.707 -3.66,-17.4218 -11.01,-23.16402 C 4475.78,2.85156 4466.11,0 4454.11,0 c -12.95,0 -25.5,3.33984 -37.65,10.0391 l 0,22.3828 c 6.97,-4.6289 13.13,-8.0078 18.5,-10.1172 5.37,-2.1289 11.08,-3.1836 17.09,-3.1836 10.2,0 15.29,3.2227 15.29,9.707 0,2.2071 -1.01,4.2774 -3.04,6.2305 -2.02,1.9531 -6.94,4.3555 -14.73,7.168 -7.79,2.8125 -13.97,5.4101 -18.53,7.8125 -4.58,2.4023 -8.51,5.8007 -11.83,10.2539 -3.32,4.4336 -4.97,10.1367 -4.97,17.0703 0,8.9844 3.6,16.2305 10.83,21.7578 7.22,5.5079 16.87,8.2619 28.97,8.2619 11.16,0 22.93,-2.676 35.34,-8.0275"
         id="path3075"
         style="fill:#8b8d91;fill-opacity:1;fill-rule:nonzero;stroke:none" /><path
         d="m 4511.93,1.52344 25.9609,0 0,104.336 -25.9609,0 0,-104.336 z"
         id="path3077"
         style="fill:#8b8d91;fill-opacity:1;fill-rule:nonzero;stroke:none" /><path
         d="m 4661.58,98.9258 0,-22.7735 c -13.29,6.3672 -26.28,9.5508 -38.96,9.5508 -12.25,0 -21.68,-3.1054 -28.29,-9.3164 -6.62,-6.2109 -9.93,-14.1211 -9.93,-23.75 0,-9.2187 3.31,-16.6797 9.93,-22.4023 6.61,-5.7032 15.32,-8.5547 26.11,-8.5547 5.71,0 11.46,1.25 17.24,3.7695 l 0,12.2852 -15.03,0 0,19.1211 41.15,0 0,-42.7735 C 4659.66,9.92188 4653.38,6.54297 4644.94,3.92578 4636.49,1.30859 4628.14,0 4619.88,0 c -18.17,0 -33.1,5.01953 -44.78,15.0977 -11.67,10.0585 -17.51,22.8515 -17.51,38.3984 0,15.8984 5.84,28.8477 17.5,38.8672 11.68,10.0197 26.79,15.0197 45.36,15.0197 15.32,0 29.03,-2.813 41.13,-8.4572"
         id="path3079"
         style="fill:#8b8d91;fill-opacity:1;fill-rule:nonzero;stroke:none" /><path
         d="m 4742.68,67.207 33.62,38.652 22.63,0 0,-104.33556 -25.95,0 0,65.15626 -28.45,-32.7149 -3.6,0 -28.4,32.7149 0,-65.15626 -25.95,0 0,104.33556 22.55,0 33.55,-38.652"
         id="path3081"
         style="fill:#8b8d91;fill-opacity:1;fill-rule:nonzero;stroke:none" /><path
         d="m 4885.07,40.293 -16.94,40.6054 -15.31,-40.6054 32.25,0 z m -2.16,65.566 46.26,-104.33556 -27.95,0 -8.54,20.48826 -46.74,0 -7.72,-20.48826 -27.55,0 41.88,104.33556 30.36,0"
         id="path3083"
         style="fill:#8b8d91;fill-opacity:1;fill-rule:nonzero;stroke:none" /><path
         d="m 5083.27,98.9258 0,-22.7735 c -13.29,6.3672 -26.28,9.5508 -38.96,9.5508 -12.25,0 -21.67,-3.1054 -28.29,-9.3164 -6.62,-6.2109 -9.93,-14.1211 -9.93,-23.75 0,-9.2187 3.31,-16.6797 9.93,-22.4023 6.62,-5.7032 15.31,-8.5547 26.11,-8.5547 5.73,0 11.46,1.25 17.24,3.7695 l 0,12.2852 -15.03,0 0,19.1211 41.15,0 0,-42.7735 C 5081.36,9.92188 5075.07,6.54297 5066.63,3.92578 5058.19,1.30859 5049.83,0 5041.57,0 c -18.16,0 -33.09,5.01953 -44.76,15.0977 -11.68,10.0585 -17.52,22.8515 -17.52,38.3984 0,15.8984 5.84,28.8477 17.5,38.8672 11.68,10.0197 26.78,15.0197 45.35,15.0197 15.32,0 29.03,-2.813 41.13,-8.4572"
         id="path3085"
         style="fill:#8b8d91;fill-opacity:1;fill-rule:nonzero;stroke:none" /><path
         d="m 5134.23,86.7383 0,-23.75 13.57,0 c 4.32,0 7.76,1.0351 10.29,3.1055 2.53,2.0703 3.79,5.0195 3.79,8.8476 0,7.8516 -4.88,11.7969 -14.68,11.7969 l -12.97,0 z m -25.95,19.1207 46.42,0 c 10.08,0 18.25,-2.929 24.54,-8.7887 6.31,-5.8594 9.46,-12.9297 9.46,-21.25 0,-11.5039 -5.99,-20.0195 -17.97,-25.5469 5.31,-2.3437 10.32,-8.7304 15.05,-19.1796 4.72,-10.4493 9.27,-20.3126 13.68,-29.57036 l -28.5,0 c -1.7,3.4375 -4.68,9.98046 -8.92,19.64846 -4.25,9.6484 -7.86,15.8593 -10.84,18.5937 -2.99,2.7344 -6.17,4.1016 -9.58,4.1016 l -7.39,0 0,-42.34376 -25.95,0 0,104.33556"
         id="path3087"
         style="fill:#8b8d91;fill-opacity:1;fill-rule:nonzero;stroke:none" /><path
         d="m 5264.73,21.6797 c 9.86,0 17.8,2.9297 23.83,8.8281 6.03,5.8789 9.04,13.6133 9.04,23.1836 0,9.6094 -3.01,17.3633 -9.04,23.2227 -6.03,5.8593 -13.97,8.789 -23.83,8.789 -9.93,0 -17.9,-2.9297 -23.95,-8.789 -6.07,-5.8594 -9.08,-13.6133 -9.08,-23.2227 0,-9.5703 3.01,-17.3047 9.08,-23.1836 6.05,-5.8984 14.02,-8.8281 23.95,-8.8281 z m 0,85.7033 c 17.77,0 32.15,-5.371 43.17,-16.133 11,-10.7812 16.5,-23.3008 16.5,-37.5977 0,-14.4921 -5.57,-27.0507 -16.72,-37.6953 C 5296.52,5.3125 5282.21,0 5264.73,0 c -17.69,0 -32.08,5.27344 -43.19,15.8789 -11.1,10.5859 -16.65,23.1836 -16.65,37.7734 0,14.336 5.52,26.875 16.55,37.6172 11.02,10.7425 25.45,16.1135 43.29,16.1135"
         id="path3089"
         style="fill:#8b8d91;fill-opacity:1;fill-rule:nonzero;stroke:none" /><path
         d="m 5420.71,105.859 25.96,0 0,-59.3356 c 0,-15.2734 -4.51,-26.8359 -13.53,-34.707 C 5424.14,3.92578 5411.26,0 5394.54,0 c -16.53,0 -29.35,3.98438 -38.5,11.9727 -9.14,7.9687 -13.71,19.4335 -13.71,34.3945 l 0,59.4918 26.14,0 0,-60.0973 c 0,-7.2851 2.37,-13.125 7.13,-17.5 4.73,-4.3945 10.97,-6.582 18.69,-6.582 8.01,0 14.42,2.2461 19.22,6.7187 4.8,4.4922 7.2,10.8789 7.2,19.1602 l 0,58.3004"
         id="path3091"
         style="fill:#8b8d91;fill-opacity:1;fill-rule:nonzero;stroke:none" /><path
         d="m 5496.12,86.7383 0,-24.2578 12.11,0 c 10.82,0 16.23,4.0429 16.23,12.1289 0,4.5312 -1.44,7.6953 -4.34,9.4531 -2.88,1.7773 -7.83,2.6758 -14.81,2.6758 l -9.19,0 z m -25.95,19.1207 46.56,0 c 10.57,0 18.96,-3.066 25.19,-9.1988 6.23,-6.1329 9.35,-13.379 9.35,-21.7579 0,-8.6718 -3.09,-16.0937 -9.24,-22.2851 -6.16,-6.1719 -14.56,-9.2578 -25.17,-9.2578 l -20.74,0 0,-41.83596 -25.95,0 0,104.33556"
         id="path3093"
         style="fill:#8b8d91;fill-opacity:1;fill-rule:nonzero;stroke:none" /></g></g></svg>